<?xml version="1.0" standalone="no"?>
<!DOCTYPE svg PUBLIC "-//W3C//DTD SVG 20010904//EN"
 "http://www.w3.org/TR/2001/REC-SVG-20010904/DTD/svg10.dtd">
<svg version="1.0" xmlns="http://www.w3.org/2000/svg"
 width="1024.000000pt" height="1024.000000pt" viewBox="0 0 1024.000000 1024.000000"
 preserveAspectRatio="xMidYMid meet">

<g transform="translate(0.000000,1024.000000) scale(0.100000,-0.100000)"
fill="#000000" stroke="none">
<path d="M0 5120 l0 -5120 5120 0 5120 0 0 5120 0 5120 -5120 0 -5120 0 0
-5120z m5195 2809 c314 -27 680 -127 1004 -274 439 -198 867 -545 1172 -950
106 -140 265 -420 343 -602 84 -198 197 -571 212 -703 3 -25 9 -76 15 -115 11
-81 20 -477 12 -547 -3 -29 -9 -45 -15 -42 -7 5 -7 1 -1 -10 14 -25 -32 -319
-72 -461 -8 -27 -21 -77 -30 -110 -29 -103 -97 -300 -107 -306 -5 -3 -10 -10
-10 -15 -2 -31 -27 -86 -37 -80 -5 4 -8 -5 -6 -19 1 -14 0 -23 -3 -20 -3 2
-11 -3 -19 -13 -8 -9 -12 -12 -9 -6 4 7 -12 16 -40 23 -45 12 -84 8 -84 -8 0
-5 -14 -11 -31 -15 -35 -7 -59 -27 -59 -50 0 -19 -40 -22 -59 -3 -11 10 -13 6
-7 -21 5 -28 3 -32 -12 -28 -9 3 -24 1 -32 -4 -13 -8 -13 -11 -1 -19 10 -7 7
-12 -15 -22 -24 -12 -29 -21 -31 -58 -3 -47 -13 -71 -13 -32 0 16 -4 21 -15
18 -8 -4 -17 -2 -20 3 -4 6 -22 10 -41 10 -19 0 -33 -4 -30 -9 3 -5 15 -7 26
-4 15 4 20 0 20 -16 0 -18 -6 -21 -41 -21 -37 0 -41 -2 -36 -21 4 -16 3 -18
-9 -8 -11 9 -14 7 -15 -12 l-1 -24 -7 25 c-4 15 -10 20 -14 13 -4 -6 -4 -19
-1 -28 5 -11 0 -18 -15 -22 -11 -3 -21 -11 -21 -18 0 -15 -48 -26 -87 -21 -16
2 -20 1 -10 -1 18 -5 24 -33 7 -33 -5 0 -10 -11 -10 -25 0 -16 -6 -25 -15 -25
-8 0 -15 9 -15 20 0 11 -7 20 -15 20 -8 0 -15 -5 -15 -11 0 -7 -10 -9 -25 -7
-17 4 -25 1 -25 -9 0 -8 -4 -11 -10 -8 -5 3 -10 -1 -10 -9 0 -8 -6 -19 -13
-23 -7 -4 -18 -19 -24 -33 -11 -23 -12 -22 -12 19 -1 62 -11 45 -20 -36 -5
-38 -9 306 -10 788 l-1 855 133 -67 c177 -90 254 -113 360 -107 98 5 148 28
202 90 59 68 78 119 77 214 0 97 -19 169 -72 274 -101 201 -341 449 -659 679
l-46 33 0 642 0 641 -532 3 -533 2 0 -345 c0 -198 -4 -345 -9 -345 -5 0 -71
24 -148 54 -187 73 -396 139 -586 186 -173 43 -494 100 -562 100 l-43 0 -83
143 c-45 78 -92 157 -103 174 l-21 33 -517 0 -518 0 0 -370 c0 -288 -3 -371
-12 -374 -7 -2 -35 -9 -62 -15 -86 -21 -258 -90 -331 -133 -38 -23 -96 -66
-127 -96 -197 -187 -211 -438 -31 -552 91 -58 158 -50 401 50 80 33 150 60
156 60 7 0 11 -24 10 -63 0 -34 -1 -204 -2 -377 l-2 -315 -68 -35 c-183 -94
-394 -273 -454 -386 -54 -100 -72 -228 -44 -307 33 -92 119 -155 198 -144 50
7 82 36 120 112 32 63 121 158 201 213 l47 33 0 -934 c0 -739 3 -936 13 -940
6 -2 258 -5 560 -6 l547 -2 1 993 c0 563 4 984 9 973 8 -19 9 -19 9 3 1 21 31
33 31 12 0 -5 5 -10 10 -10 6 0 24 -13 42 -30 17 -16 39 -30 49 -30 12 0 21
-11 28 -35 5 -19 23 -49 40 -67 22 -24 29 -39 25 -55 -4 -14 -2 -23 5 -23 6 0
11 -7 11 -15 0 -8 8 -30 17 -50 13 -26 22 -35 35 -32 12 3 22 -3 30 -16 6 -12
18 -27 26 -33 8 -6 12 -16 8 -22 -4 -8 0 -12 11 -12 15 0 16 -2 3 -10 -13 -9
-13 -11 0 -20 8 -6 27 -13 43 -17 15 -3 27 -12 27 -19 0 -8 7 -14 15 -14 8 0
15 -6 15 -14 0 -7 9 -25 20 -39 11 -14 20 -36 20 -49 1 -21 2 -21 15 7 13 28
14 29 12 5 -2 -20 2 -24 18 -22 l20 4 -20 -16 c-11 -8 -15 -16 -9 -16 7 0 14
-9 17 -20 3 -12 11 -18 19 -15 7 3 18 -3 23 -13 6 -11 22 -37 36 -58 14 -21
34 -55 45 -74 10 -19 21 -37 24 -40 3 -3 12 -18 20 -35 7 -16 25 -45 38 -64
14 -19 27 -53 30 -79 4 -36 7 -42 13 -27 6 16 8 14 8 -12 1 -17 4 -39 8 -48 5
-15 7 -15 18 4 11 22 11 22 26 -6 8 -15 20 -34 27 -41 7 -8 10 -17 7 -22 -3
-4 2 -10 10 -14 8 -3 15 -12 15 -21 0 -8 4 -15 9 -15 5 0 11 -8 14 -17 8 -25
50 -97 62 -105 6 -5 6 -8 0 -8 -5 0 -1 -6 10 -14 11 -8 43 -58 70 -112 28 -54
56 -105 63 -112 6 -7 12 -19 12 -26 0 -7 9 -23 20 -36 23 -27 26 -42 6 -34
-11 4 -13 0 -9 -15 5 -22 23 -29 23 -10 0 5 5 7 11 3 8 -4 8 -9 1 -13 -14 -8
0 -73 16 -79 6 -2 12 5 12 15 0 15 2 16 10 3 6 -10 6 -16 0 -18 -6 -2 -10 -12
-10 -23 0 -22 -11 -24 -28 -7 -9 9 -12 7 -12 -10 0 -12 5 -22 10 -22 6 0 10
-9 10 -20 0 -11 7 -20 15 -20 8 0 15 -3 16 -7 0 -5 2 -17 5 -28 5 -27 -5 -75
-17 -75 -5 0 -9 7 -9 15 0 8 -5 15 -11 15 -6 0 -9 -6 -6 -13 3 -8 1 -20 -4
-28 -8 -12 -10 -12 -18 1 -6 8 -14 11 -18 6 -4 -5 -2 -11 5 -13 6 -3 12 -8 12
-13 0 -9 -39 -25 -52 -22 -5 1 -8 -8 -8 -19 0 -16 -5 -20 -20 -16 -11 3 -20 1
-20 -5 0 -5 -10 -6 -22 -3 -18 5 -20 4 -8 -4 8 -6 24 -8 35 -6 11 3 14 2 7 -1
-6 -3 -9 -10 -6 -16 4 -5 -4 -5 -16 2 -16 9 -25 9 -33 1 -8 -8 -8 -11 0 -11 6
0 9 -9 6 -20 -5 -18 -14 -20 -79 -20 -75 0 -91 -9 -62 -38 9 -9 7 -13 -6 -18
-11 -4 -22 0 -30 11 -9 13 -15 15 -20 6 -4 -6 0 -14 8 -17 9 -3 16 -12 16 -20
0 -10 -12 -12 -50 -7 -48 6 -50 5 -50 -19 0 -13 -6 -31 -12 -40 -19 -24 -92
-31 -134 -13 -31 13 -41 13 -76 0 -23 -7 -54 -11 -70 -8 -20 4 -29 1 -34 -11
-3 -9 -12 -16 -20 -16 -8 0 -14 -4 -14 -10 0 -5 -11 -12 -25 -16 -14 -3 -25
-12 -25 -20 0 -8 -10 -14 -25 -14 -14 0 -25 5 -25 10 0 6 -12 10 -27 9 -24 0
-25 -2 -8 -8 16 -7 14 -9 -14 -14 -19 -4 -46 -7 -62 -7 -16 0 -29 -4 -29 -10
0 -5 -22 -10 -50 -10 -42 0 -50 -3 -50 -18 0 -15 -6 -18 -31 -14 -20 3 -30 1
-25 -6 4 -7 -6 -7 -32 -1 -20 5 -59 12 -85 15 -91 10 -362 107 -537 192 -386
187 -683 422 -972 767 -163 195 -284 382 -389 600 -232 485 -332 935 -316
1415 11 305 35 448 127 760 67 226 106 326 170 430 5 8 22 42 38 75 67 140
167 300 257 408 8 9 15 20 15 22 0 30 306 356 450 480 266 229 681 462 1035
580 200 66 458 124 630 142 33 3 62 7 64 9 9 8 383 3 496 -7z m-305 -1800
c174 -30 378 -82 584 -150 l186 -61 0 -200 c0 -187 -1 -200 -17 -193 -35 13
-361 64 -490 76 l-131 13 -105 175 c-118 199 -207 354 -207 362 0 7 36 2 180
-22z m1945 -921 c48 -51 98 -112 112 -135 58 -100 0 -116 -142 -38 l-87 47 6
37 c3 20 6 69 6 109 0 39 4 72 9 72 5 0 48 -42 96 -92z m-1257 -49 l84 -12 -6
-146 c-3 -80 -6 -175 -7 -211 0 -39 -4 -56 -7 -42 -4 13 -11 23 -17 24 -23 1
-55 18 -55 29 0 6 -7 8 -16 5 -10 -4 -22 1 -30 11 -27 35 -142 209 -172 260
-17 29 -39 64 -49 79 l-17 27 104 -6 c58 -3 143 -12 188 -18z m-13 -379 c3 -5
1 -10 -4 -10 -6 0 -11 5 -11 10 0 6 2 10 4 10 3 0 8 -4 11 -10z m1828 -1247
c-7 -2 -19 -2 -25 0 -7 3 -2 5 12 5 14 0 19 -2 13 -5z m-86 -78 c0 -8 -4 -12
-9 -9 -5 3 -6 10 -3 15 9 13 12 11 12 -6z m-197 -155 c0 -5 -7 -10 -15 -10 -8
0 -15 5 -15 10 0 6 7 10 15 10 8 0 15 -4 15 -10z m-60 -35 c0 -10 -11 -15 -35
-15 -44 0 -46 17 -2 23 17 2 33 5 35 5 1 1 2 -5 2 -13z m-1660 -845 c0 -5 -4
-10 -10 -10 -5 0 -10 5 -10 10 0 6 5 10 10 10 6 0 10 -4 10 -10z m-640 -261
c0 8 2 12 5 9 3 -3 3 -12 -1 -21 -4 -13 -9 -14 -19 -4 -7 7 -11 16 -8 21 3 4
9 2 14 -5 7 -12 9 -12 9 0z"/>
<path d="M7616 3774 c-3 -8 -10 -12 -16 -9 -5 3 -10 1 -10 -4 0 -15 19 -14 36
3 16 17 18 26 5 26 -5 0 -12 -7 -15 -16z"/>
<path d="M7686 3753 c-6 -14 -5 -15 5 -6 7 7 10 15 7 18 -3 3 -9 -2 -12 -12z"/>
<path d="M5412 2760 c0 -19 2 -27 5 -17 2 9 2 25 0 35 -3 9 -5 1 -5 -18z"/>
</g>
</svg>
